# xmcd CD database file generated by LOLA_Freedb v0.9beta0
# 
# Track frame offsets:
#      183
#      10280
#      25253
#      33488
#      42958
#      56845
#      65755
#      74050
#      86885
#      103920
#      116413
#      129398
#      141223
#      152953
# 
# Disc length: 2179 seconds
# 
# Revision: 0 
# Processed by: cddbd v1.5.1PL0 Copyright (c) Steve Scherf et al.
# Submitted via: LOLA_Freedb v0.9beta0
# 
DISCID=d208810e
DTITLE=Willie Nelson - Blame It On The Times
DYEAR=1993
DGENRE=
TTITLE0=Willie Nelson - Broken Promises
TTITLE1=Willie Nelson - And So Will You My Love
TTITLE2=Willie Nelson - Things To Remember
TTITLE3=Willie Nelson - One Step Beyond
TTITLE4=Willie Nelson - Home Is Where You´re Happy
TTITLE5=Willie Nelson - Why Are You Picking On Me
TTITLE6=Willie Nelson - You Wouldn´t Cross The  Street To Say Goodbye
TTITLE7=Willie Nelson - Any Old Arms Won´t Do
TTITLE8=Willie Nelson - I Let My Mind  Wonder
TTITLE9=Willie Nelson - Shelter Of Your Arms
TTITLE10=Willie Nelson - I Just Don´t Understand
TTITLE11=Willie Nelson - Some Other Time
TTITLE12=Willie Nelson - Is There Something On Your Mind
TTITLE13=Willie Nelson - Blame It On The Times
EXTD=
EXTT0=
EXTT1=
EXTT2=
EXTT3=
EXTT4=
EXTT5=
EXTT6=
EXTT7=
EXTT8=
EXTT9=
EXTT10=
EXTT11=
EXTT12=
EXTT13=
PLAYORDER=
